<svg width="200" height="53" viewBox="0 0 200 53" fill="none" xmlns="http://www.w3.org/2000/svg">
<path d="M69.7605 27.8982C68.6826 27.8982 67.8443 27.0599 67.8443 25.9821C67.8443 24.8244 68.7625 23.8663 69.9201 23.8663H91.437C91.8362 23.8663 92.1556 24.1857 92.1556 24.5849V25.8224C92.1556 26.9801 91.1975 27.8982 90.0398 27.8982H69.7605ZM94.1117 19.515H69.8403C66.487 19.515 63.7725 22.2296 63.7725 25.543V26.5809C63.7725 29.9342 66.487 32.6487 69.8403 32.6487H94.1117C95.2693 32.6487 96.1875 33.5669 96.1875 34.7246V36.3214C96.1875 36.7206 95.9081 37 95.5089 37H70.1597C64.4112 37 59.7405 32.3294 59.7405 26.5809V25.5829C59.7405 19.7945 64.4112 15.1238 70.1597 15.1238H95.5089C95.9081 15.1238 96.1875 15.4432 96.1875 15.8025V17.3993C96.1875 18.557 95.2693 19.515 94.1117 19.515ZM138.912 17.1997C138.912 16.042 139.83 15.1238 140.988 15.1238H142.265C142.665 15.1238 142.944 15.4432 142.944 15.8025V34.9242C142.944 36.0818 142.026 37 140.868 37H138.912H138.872C138.154 37 137.475 36.8004 136.876 36.4012C132.325 33.3673 115.958 22.5889 111.048 19.3554C110.848 19.2356 110.529 19.3953 110.529 19.6747V34.9242C110.529 36.0818 109.611 37 108.453 37H107.176C106.777 37 106.497 36.7206 106.497 36.3214V17.1997C106.497 16.042 107.415 15.1238 108.573 15.1238H110.449C111.168 15.1238 111.886 15.3234 112.525 15.7626L138.353 32.7685C138.593 32.9282 138.912 32.7685 138.912 32.489V17.1997ZM180.804 15.1238C186.553 15.1238 191.224 19.7945 191.224 25.5829V26.5809C191.224 32.3294 186.553 37 180.804 37H155.455C155.056 37 154.777 36.7206 154.777 36.3214V24.5849C154.777 24.1857 155.056 23.8663 155.455 23.8663H156.733C157.89 23.8663 158.809 24.8244 158.809 25.9821V32.2894C158.809 32.489 158.968 32.6487 159.168 32.6487H181.124C184.477 32.6487 187.192 29.9342 187.192 26.5809V25.543C187.192 22.2296 184.477 19.515 181.124 19.515H156.852C155.695 19.515 154.777 18.557 154.777 17.3993V15.8025C154.777 15.4432 155.056 15.1238 155.455 15.1238H180.804Z" fill="#34C8B9"/>
<ellipse cx="28.5" cy="25.5" rx="26.5" ry="25.5" fill="#05445E"/>
<path d="M46.3985 17.0471C46.3985 18.2048 45.4404 19.1629 44.2826 19.1629H16.4971C15.2995 19.1629 14.3015 20.4803 14.3015 21.678C14.3015 22.9156 15.2995 23.8737 16.4971 23.8737H40.1707C43.8036 23.8737 46.7179 26.4686 46.7179 30.1015C46.7179 33.7343 43.8036 36.6486 40.1707 36.6486H11.3073C10.9081 36.6486 10.5887 36.3692 10.5887 35.97V34.3731C10.5887 33.2154 11.5469 32.2972 12.7046 32.2972H40.4901C41.6877 32.2972 42.6858 31.2991 42.6858 30.1015C42.6858 28.9038 41.6877 27.9058 40.4901 27.9058H16.8165C13.1836 27.9058 10.2694 25.3109 10.2694 21.678C10.2694 18.0451 13.1836 14.7715 16.8165 14.7715H45.6799C46.0791 14.7715 46.3985 15.0909 46.3985 15.4502V17.0471Z" fill="#34C8B9"/>
</svg>
